<svg height="512pt" viewBox="0 0 512 512" width="512pt" xmlns="http://www.w3.org/2000/svg"><path d="m497 172h-107v-157c0-8.285156-6.714844-15-15-15h-360c-8.285156 0-15 6.714844-15 15v419.996094c0 42.460937 34.542969 77.003906 77.003906 77.003906h358.996094c41.90625 0 76-34.09375 76-76v-249c0-8.285156-6.714844-15-15-15zm-467 262.996094v-404.996094h330v406c0 17.277344 5.804688 33.21875 15.554688 46h-298.550782c-25.917968 0-47.003906-21.085938-47.003906-47.003906zm452 1.003906c0 25.363281-20.636719 46-46 46s-46-20.636719-46-46v-234h92zm0 0"/><path d="m165 120h15v15c0 8.285156 6.714844 15 15 15s15-6.714844 15-15v-15h15c8.285156 0 15-6.714844 15-15s-6.714844-15-15-15h-15v-15c0-8.285156-6.714844-15-15-15s-15 6.714844-15 15v15h-15c-8.285156 0-15 6.714844-15 15s6.714844 15 15 15zm0 0"/><path d="m119.996094 240h150.007812c8.285156 0 15-6.714844 15-15 0-8.28125-6.714844-15-15-15h-150.007812c-8.285156 0-15 6.71875-15 15 0 8.285156 6.714844 15 15 15zm0 0"/><path d="m75.003906 300h239.992188c8.285156 0 15-6.714844 15-15s-6.714844-15-15-15h-239.992188c-8.285156 0-15 6.714844-15 15s6.714844 15 15 15zm0 0"/><path d="m329.996094 345c0-8.28125-6.714844-15-15-15h-239.992188c-8.285156 0-15 6.71875-15 15 0 8.285156 6.714844 15 15 15h239.992188c8.285156 0 15-6.714844 15-15zm0 0"/><path d="m315.003906 422h-60.007812c-8.28125 0-15 6.714844-15 15s6.71875 15 15 15h60.007812c8.28125 0 15-6.714844 15-15s-6.71875-15-15-15zm0 0"/></svg>